<?xml version="1.0" encoding="UTF-8"?>
<svg id="Layer_2" data-name="Layer 2" xmlns="http://www.w3.org/2000/svg" viewBox="0 0 222.08 222.08">
  <defs>
    
  </defs>
  <g id="Layer_1-2" data-name="Layer 1">
    <g id="icon_02" data-name="icon 02">
      <g>
        <rect class="cls-3" x="133.57" y="51.25" width="42.07" height="44.75" fill="none" stroke-miterlimit="10" stroke-width="4.49px" stroke="#9f7741"/>
        <rect class="cls-4" x="54.59" y="51.25" width="42.07" height="44.75" fill="none" stroke-miterlimit="10" stroke-width="4.49px" stroke="#012962"/>
        <path class="cls-5" d="M33.45,82.51v-6.61h-6.66v-4.56h6.66v-6.61h4.44v6.61h6.67v4.56h-6.67v6.61h-4.44Z" fill="#2b79c2"/>
        <path class="cls-5" d="M73.4,41.69v-6.61h-6.66v-4.56h6.66v-6.61h4.44v6.61h6.67v4.56h-6.67v6.61h-4.44Z" fill="#2b79c2"/>
        <path class="cls-5" d="M152.38,41.69v-6.61h-6.66v-4.56h6.66v-6.61h4.44v6.61h6.67v4.56h-6.67v6.61h-4.44Z" fill="#2b79c2"/>
        <path class="cls-5" d="M67.35,114.49v-4.87h16.55v4.87s-16.55,0-16.55,0Z" fill="#2b79c2"/>
        <path class="cls-5" d="M146.33,114.49v-4.87h16.55v4.87h-16.55Z" fill="#2b79c2"/>
        <path class="cls-5" d="M184.3,72.01v-4.47h20.64v4.47h-20.64ZM184.3,79.71v-4.49h20.64v4.49h-20.64Z" fill="#2b79c2"/>
        <rect class="cls-3" x="133.57" y="128.61" width="42.07" height="44.75" fill="none" stroke-miterlimit="10" stroke-width="4.49px" stroke="#9f7741"/>
        <rect class="cls-1" x="54.59" y="128.61" width="42.07" height="44.75" stroke="#5a915e" fill="none" stroke-miterlimit="10" stroke-width="4.49px"/>
        <path class="cls-5" d="M33.45,159.87v-6.61h-6.66v-4.56h6.66v-6.61h4.44v6.61h6.67v4.56h-6.67v6.61h-4.44Z" fill="#2b79c2"/>
        <path class="cls-5" d="M106.83,153.42v-4.87h16.55v4.87h-16.55Z" fill="#2b79c2"/>
        <path class="cls-5" d="M184.3,149.37v-4.47h20.64v4.47h-20.64ZM184.3,157.07v-4.49h20.64v4.49h-20.64Z" fill="#2b79c2"/>
        <path class="cls-5" d="M144.29,188.72v-4.47h20.64v4.47h-20.64ZM144.29,196.41v-4.49h20.64v4.49h-20.64Z" fill="#2b79c2"/>
        <path class="cls-5" d="M65.31,188.72v-4.47h20.64v4.47h-20.64ZM65.31,196.41v-4.49h20.64v4.49h-20.64Z" fill="#2b79c2"/>
        <path class="cls-5" d="M112.67,69.29v-4.87h4.87v4.87h-4.87ZM112.67,82.83v-4.87h4.87v4.87h-4.87Z" fill="#2b79c2"/>
        <circle class="cls-2" cx="111.04" cy="111.04" r="110.04" fill="none" stroke-miterlimit="10" stroke="#2b79c2" stroke-width="2px"/>
      </g>
    </g>
  </g>
</svg>